#!OML:ASF E:/inclinewalkrobotboard/Project1/Captureday1/Session1/subject1.ASF
:FULLY-SPECIFIED
:DEGREES
55
root 0 0 0 -2.13204632310984 -3.7542486256673815 0.5071913886781556
lowerback 7.523912128801535 1.6101877532414341 -2.5223263651688406
upperback 1.9217641971514166 1.9987516709213882 -0.07707737149741867
thorax -2.2548401750226232 1.0519665226549786 1.2185827686041066
lowerneck -9.140323183145057 -5.535038232902246 -6.472252471977621
upperneck 30.901634705993228 -8.666007670864197 6.141077372024325
head 11.561013312847923 -3.955299350840157 2.044307107713049
rclavicle -2.5279660504514665E-15 1.7249323560762792E-15
rhumerus -9.764230528764394 3.722581112638961 -79.92547658873869
rradius 51.127225412254354
rwrist -21.314859947254696
rhand -41.91939548726593 15.465224603717507
rfingers 7.12501999999995
rthumb -14.781025433642062 -13.95967498109103
lclavicle -6.473561600207492E-15 1.3798001473762392E-15
lhumerus -30.91013172106726 11.748918823528662 77.24919064518348
lradius 24.796392505521798
lwrist -4.808450113171485
lhand -24.251910759543353 21.91346670774705
lfingers 7.125019999999955
lthumb 2.2358603717274153 51.85137322940828
rfemur 1.9068176784691215 8.44149247638269 34.580397824629365
rtibia 26.803469879776756
rfoot -20.740075757604007 -9.194078855178379
rtoes 4.244935473241963
lfemur -31.44905080719854 1.817879714225045 -13.005778814978514
ltibia 44.9516026204501
lfoot -5.367967367872473 -3.508464651426289
ltoes -6.169288619208665
56
root 0 0 0 -2.1175788951312757 -3.737195469714018 0.50848366991272
lowerback 7.547451292655248 1.613321758841705 -2.528023418894632
upperback 1.9267927591758585 2.0018924712153088 -0.077945058283312
thorax -2.2638070306974565 1.0535491485165704 1.2196484831260253
lowerneck -9.152210372719665 -5.541390267250965 -6.4811847175519395
upperneck 30.882059398239775 -8.66972058327421 6.164033866410183
head 11.557271149065896 -3.956995845901276 2.0539785518882328
rclavicle -2.279495500596302E-15 1.6818600683916168E-15
rhumerus -9.682010331548899 3.583020901245507 -79.92042927449765
rradius 50.883959671933354
rwrist -21.249059792707463
rhand -41.940619669057966 15.571192285080159
rfingers 7.1250199999999495
rthumb -14.799151379344472 -13.852562062458539
lclavicle -6.314401848710194E-15 1.3586605478074518E-15
lhumerus -30.970941567644076 11.840518958790911 77.12580260964145
lradius 24.77246350412215
lwrist -4.843874254722454
lhand -24.326093728424617 21.87869409047122
lfingers 7.125019999999956
lthumb 2.1647694604187366 51.817743503156215
rfemur 1.9826823646169198 8.434478996645112 34.57934540209188
rtibia 27.026238999855465
rfoot -20.581321344499997 -9.158611149671096
rtoes 3.9650370023150074
lfemur -31.720418553724066 1.468103263631404 -13.137803986264602
ltibia 42.558062592304225
lfoot -5.088974022576932 -3.7052850026707684
ltoes -5.638132707392143
57
root 0 0 0 -2.110105837748236 -3.7282863389777705 0.5073901286657578
lowerback 7.569342336061665 1.6127347953422022 -2.5314680601964756
upperback 1.922216881420756 2.0005563016169456 -0.07617751269965889
thorax -2.282226154618433 1.052584896066998 1.2229906148871925
lowerneck -9.184292314196165 -5.543566098443561 -6.478927477549204
upperneck 30.882071500383226 -8.668285945938209 6.170661001322214
head 11.560153138151085 -3.9559537737892723 2.05770057475549
rclavicle -2.0427020521283415E-15 1.6339848654900943E-15
rhumerus -9.505286284725404 3.3273652243619694 -79.89436600574459
rradius 50.52600545772007
rwrist -21.152809201265818
rhand -41.97038938896112 15.700460824834899
rfingers 7.125019999999949
rthumb -14.824779119630396 -13.720941782728222
lclavicle -6.165908475771044E-15 1.317180663753332E-15
lhumerus -31.006841075904354 11.907088293388561 77.04669330958171
lradius 24.758326597510415
lwrist -4.865014698987383
lhand -24.38062674070368 21.85106064699468
lfingers 7.125019999999957
lthumb 2.112539125214453 51.79107131246187
rfemur 1.6583394821691049 8.403745989750927 34.53811388893322
rtibia 27.544679196426067
rfoot -20.235594546045444 -9.133911601847904
rtoes 3.770836093853996
lfemur -31.678196730400295 1.240825296805946 -13.36736187166318
ltibia 41.030828407949755
lfoot -4.718089371003163 -4.0864037044440895
ltoes -5.097679064495805
58
root 0 0 0 -2.1082093963993263 -3.727122196095822 0.5048758503231887
lowerback 7.588029154117015 1.6093144925624732 -2.5331436394209135
upperback 1.9118298200061452 1.9958188094634728 -0.07259649414308744
thorax -2.3050180643182294 1.049757022534502 1.227934628238065
lowerneck -9.225646231332757 -5.542521305375308 -6.468892902365985
upperneck 30.896651896958172 -8.663498045173288 6.165125160284977
head 11.5673887633252 -3.9531952641081167 2.056814089912807
rclavicle -1.8392333167774073E-15 1.5854074911823145E-15
rhumerus -9.270080242991401 3.0072467634294204 -79.85216265843097
rradius 50.1199878671547
rwrist -21.04184132448285
rhand -42.00200948726533 15.83365844261826
rfingers 7.125019999999948
rthumb -14.851975679316928 -13.584768888981031
lclavicle -6.037341329971412E-15 1.2610214625976289E-15
lhumerus -31.015384792921722 11.944364054950706 77.01735434482599
lradius 24.75608439132502
lwrist -4.868860666398447
lhand -24.413321243562283 21.832060978266984
lfingers 7.125019999999957
lthumb 2.0812481539978407 51.77277022574713
rfemur 0.8517420680362195 8.347484341232443 34.44593099157596
rtibia 28.371389306450574
rfoot -19.707508138969228 -9.146061768932928
rtoes 3.728759468221727
lfemur -31.369372954358795 1.142845354362736 -13.670522071491776
ltibia 40.38361252330267
lfoot -4.326851421617973 -4.5808612335035495
ltoes -4.605256764705879
59
root 0 0 0 -2.1146459383456184 -3.7415240173710096 0.49998234007525627
lowerback 7.606220021400526 1.5997331538298414 -2.5332052745683717
upperback 1.8911514094930695 1.9833377685918623 -0.0648134203868227
thorax -2.338754791189491 1.0427683192537662 1.237797683377217
lowerneck -9.286719793395214 -5.536144110595437 -6.443977565486058
upperneck 30.9436448067431 -8.653135026513718 6.1384501163393335
head 11.584333587613784 -3.947579470163208 2.047989235209252
rclavicle -1.6365618961081419E-15 1.5206292659278867E-15
rhumerus -8.87833724741482 2.498431472472582 -79.76870247058314
rradius 49.519234533031984
rwrist -20.882919937401343
rhand -42.03514447388591 16.008515438016502
rfingers 7.125019999999946
rthumb -14.879440823987135 -13.405705198608873
lclavicle -5.915689641772993E-15 1.1705510177401043E-15
lhumerus -30.988469708292744 11.964530012178516 77.04379776226367
lradius 24.781212532570624
lwrist -4.832779859251443
lhand -24.45178072831602 21.810300002620707
lfingers 7.125019999999957
lthumb 2.0443385874981446 51.75169605195094
rfemur -1.5361289149122466 8.212935865303164 34.17029712882158
rtibia 30.22231152316502
rfoot -18.530081549061407 -9.28080555655232
rtoes 4.050559257371422
lfemur -30.469650060665188 1.2213958006809946 -14.214989209463182
ltibia 40.89450303001535
lfoot -3.8138377393073153 -5.450352450132341
ltoes -4.087471364746449
60
root 0 0 0 -2.123552505666874 -3.758557573854062 0.4965964880477463
lowerback 7.610932026097275 1.5918643311281035 -2.532035120823821
upperback 1.8765891214313788 1.9733114157871905 -0.05918383378092984
thorax -2.3575368696163332 1.0372910640284014 1.2446792727887264
lowerneck -9.320869569634304 -5.530098214924047 -6.4248652869549945
upperneck 30.983785778314637 -8.645828800388914 6.113408295910664
head 11.597327632118498 -3.9437195056861643 2.0388998065689226
rclavicle -1.520464006672342E-15 1.473383950400486E-15
rhumerus -8.598196765405724 2.1667437094393627 -79.69772310070016
rradius 49.16802837115805
rwrist -20.776942880086697
rhand -42.04853232470076 16.11141947722878
rfingers 7.125019999999945
rthumb -14.88936016431245 -13.30027024492674
lclavicle -5.833998448836425E-15 1.0811107297291594E-15
lhumerus -30.929012162494374 11.927272546386645 77.13983568757503
lradius 24.812849094450737
lwrist -4.787439131023286
lhand -24.43394402964064 21.81269778648407
lfingers 7.125019999999956
lthumb 2.061389336769591 51.754073820458345
rfemur -3.772185902230554 8.106048292390895 33.894340858611244
rtibia 31.693366813839084
rfoot -17.540218634006063 -9.43258655968373
rtoes 4.429651698665711
lfemur -29.63393382485829 1.3969569212865967 -14.595608144917557
ltibia 42.03771430016512
lfoot -3.542411164658974 -6.067619501416059
ltoes -3.916417104999903
61
root 0 0 0 -2.1371429463711467 -3.783148661501104 0.4930924797288733
lowerback 7.6085653473198835 1.582454127592313 -2.529942575546627
upperback 1.8609263015321935 1.9614492014064446 -0.053092561400279514
thorax -2.3731755245938233 1.0309299354284378 1.251996703272963
lowerneck -9.3495488503009 -5.522409337704285 -6.40334817434312
upperneck 31.034355406250697 -8.638294259121928 6.081049642250906
head 11.61254987887882 -3.9397955861676426 2.0265849591229967
rclavicle -1.4643488058809466E-15 1.4209200684104469E-15
rhumerus -8.324238238715392 1.8545921750758732 -79.62114818848389
rradius 48.85506051247141
rwrist -20.690673245832002
rhand -42.0494682742549 16.189695432458834
rfingers 7.125019999999943
rthumb -14.88796298569823 -13.220125706166948
lclavicle -5.796984733209248E-15 9.768173176198637E-16
lhumerus -30.848180218009556 11.86733443151483 77.27485249253512
lradius 24.85699658263809
lwrist -4.724033057620058
lhand -24.403400732247224 21.821020938254968
lfingers 7.125019999999955
lthumb 2.0905938405243587 51.762081526916255
rfemur -6.494257704541211 7.986837724584419 33.553871192516254
rtibia 33.323832639209776
rfoot -16.377235888002794 -9.604004932294714
rtoes 4.897647067922767
lfemur -28.607332522058652 1.6682657134489478 -14.975118220234249
ltibia 43.83675308350835
lfoot -3.3222373211013227 -6.722291682115616
ltoes -3.929683926911288
62
root 0 0 0 -2.156505723403436 -3.8150420234216806 0.4891404035546834
lowerback 7.5979978055133595 1.5715650428824082 -2.526602128237859
upperback 1.8428636213685028 1.947889552306526 -0.046677605223019225
thorax -2.386369482711408 1.0237060843163976 1.2593366893140994
lowerneck -9.375415391705372 -5.512942984798599 -6.379097452186802
upperneck 31.095610504661945 -8.630299986745083 6.04004086733596
head 11.63040982329808 -3.9356079830155926 2.0105459967143116
rclavicle -1.4666690462334359E-15 1.3698745086381292E-15
rhumerus -8.057057188655254 1.5695748973638075 -79.53791389208877
rradius 48.597775439558326
rwrist -20.62381815940477
rhand -42.0383504486898 16.24092304341529
rfingers 7.1250199999999415
rthumb -14.875512723384102 -13.16763293999328
lclavicle -5.7969036542375306E-15 8.617021893545483E-16
lhumerus -30.750500882315126 11.786678417374311 77.4415294886695
lradius 24.90824970628066
lwrist -4.650447411909045
lhand -24.356672521365333 21.836021606929656
lfingers 7.125019999999954
lthumb 2.135280252448242 51.77653103490881
rfemur -9.426616730032269 7.85758330549107 33.20378034594195
rtibia 34.99921739153268
rfoot -15.139324425657229 -9.744637149853178
rtoes 5.413364659507749
lfemur -27.438036208360625 2.0210025545111137 -15.316606357841808
ltibia 46.266952930424296
lfoot -3.1337202582476653 -7.369591808574691
ltoes -4.1330338480523405
